<mxfile host="Electron" modified="2024-04-11T22:42:35.997Z" agent="Mozilla/5.0 (Windows NT 10.0; Win64; x64) AppleWebKit/537.36 (KHTML, like Gecko) draw.io/24.1.0 Chrome/120.0.6099.109 Electron/28.1.0 Safari/537.36" etag="ionRAEnujhc-NjBIy6sG" version="24.1.0" type="device">
  <diagram id="1dmdS3GdRMEdE-Z9J1JC" name="Страница 1">
    <mxGraphModel dx="3635" dy="1628" grid="1" gridSize="10" guides="1" tooltips="1" connect="1" arrows="1" fold="1" page="1" pageScale="1" pageWidth="827" pageHeight="1169" math="0" shadow="1">
      <root>
        <mxCell id="0" />
        <mxCell id="1" parent="0" />
        <mxCell id="A6qeI73UASJIK5Bc831--14" value="masseger_message" style="shape=table;startSize=30;container=1;collapsible=0;childLayout=tableLayout;fillColor=#d5e8d4;strokeColor=#82b366;shadow=1;sketch=1;curveFitting=1;jiggle=2;" parent="1" vertex="1">
          <mxGeometry x="-242" y="188" width="139.00000000000045" height="230" as="geometry" />
        </mxCell>
        <mxCell id="A6qeI73UASJIK5Bc831--18" value="" style="shape=tableRow;horizontal=0;startSize=0;swimlaneHead=0;swimlaneBody=0;strokeColor=inherit;top=0;left=0;bottom=0;right=0;collapsible=0;dropTarget=0;fillColor=none;points=[[0,0.5],[1,0.5]];portConstraint=eastwest;" parent="A6qeI73UASJIK5Bc831--14" vertex="1">
          <mxGeometry y="30" width="139.00000000000045" height="40" as="geometry" />
        </mxCell>
        <mxCell id="A6qeI73UASJIK5Bc831--19" value="text" style="shape=partialRectangle;html=1;whiteSpace=wrap;connectable=0;strokeColor=inherit;overflow=hidden;fillColor=none;top=0;left=0;bottom=0;right=0;pointerEvents=1;" parent="A6qeI73UASJIK5Bc831--18" vertex="1">
          <mxGeometry width="60" height="40" as="geometry">
            <mxRectangle width="60" height="40" as="alternateBounds" />
          </mxGeometry>
        </mxCell>
        <mxCell id="A6qeI73UASJIK5Bc831--20" value="content" style="shape=partialRectangle;html=1;whiteSpace=wrap;connectable=0;strokeColor=inherit;overflow=hidden;fillColor=none;top=0;left=0;bottom=0;right=0;pointerEvents=1;" parent="A6qeI73UASJIK5Bc831--18" vertex="1">
          <mxGeometry x="60" width="79" height="40" as="geometry">
            <mxRectangle width="79" height="40" as="alternateBounds" />
          </mxGeometry>
        </mxCell>
        <mxCell id="WCEEy9OTSrLAwlzTOgqZ-58" style="shape=tableRow;horizontal=0;startSize=0;swimlaneHead=0;swimlaneBody=0;strokeColor=inherit;top=0;left=0;bottom=0;right=0;collapsible=0;dropTarget=0;fillColor=none;points=[[0,0.5],[1,0.5]];portConstraint=eastwest;" parent="A6qeI73UASJIK5Bc831--14" vertex="1">
          <mxGeometry y="70" width="139.00000000000045" height="40" as="geometry" />
        </mxCell>
        <mxCell id="WCEEy9OTSrLAwlzTOgqZ-59" value="FK" style="shape=partialRectangle;html=1;whiteSpace=wrap;connectable=0;strokeColor=inherit;overflow=hidden;fillColor=none;top=0;left=0;bottom=0;right=0;pointerEvents=1;" parent="WCEEy9OTSrLAwlzTOgqZ-58" vertex="1">
          <mxGeometry width="60" height="40" as="geometry">
            <mxRectangle width="60" height="40" as="alternateBounds" />
          </mxGeometry>
        </mxCell>
        <mxCell id="WCEEy9OTSrLAwlzTOgqZ-60" value="autor" style="shape=partialRectangle;html=1;whiteSpace=wrap;connectable=0;strokeColor=inherit;overflow=hidden;fillColor=none;top=0;left=0;bottom=0;right=0;pointerEvents=1;" parent="WCEEy9OTSrLAwlzTOgqZ-58" vertex="1">
          <mxGeometry x="60" width="79" height="40" as="geometry">
            <mxRectangle width="79" height="40" as="alternateBounds" />
          </mxGeometry>
        </mxCell>
        <mxCell id="A6qeI73UASJIK5Bc831--21" value="" style="shape=tableRow;horizontal=0;startSize=0;swimlaneHead=0;swimlaneBody=0;strokeColor=inherit;top=0;left=0;bottom=0;right=0;collapsible=0;dropTarget=0;fillColor=none;points=[[0,0.5],[1,0.5]];portConstraint=eastwest;" parent="A6qeI73UASJIK5Bc831--14" vertex="1">
          <mxGeometry y="110" width="139.00000000000045" height="40" as="geometry" />
        </mxCell>
        <mxCell id="A6qeI73UASJIK5Bc831--22" value="datatime" style="shape=partialRectangle;html=1;whiteSpace=wrap;connectable=0;strokeColor=inherit;overflow=hidden;fillColor=none;top=0;left=0;bottom=0;right=0;pointerEvents=1;" parent="A6qeI73UASJIK5Bc831--21" vertex="1">
          <mxGeometry width="60" height="40" as="geometry">
            <mxRectangle width="60" height="40" as="alternateBounds" />
          </mxGeometry>
        </mxCell>
        <mxCell id="A6qeI73UASJIK5Bc831--23" value="timestamp" style="shape=partialRectangle;html=1;whiteSpace=wrap;connectable=0;strokeColor=inherit;overflow=hidden;fillColor=none;top=0;left=0;bottom=0;right=0;pointerEvents=1;" parent="A6qeI73UASJIK5Bc831--21" vertex="1">
          <mxGeometry x="60" width="79" height="40" as="geometry">
            <mxRectangle width="79" height="40" as="alternateBounds" />
          </mxGeometry>
        </mxCell>
        <mxCell id="WCEEy9OTSrLAwlzTOgqZ-21" style="shape=tableRow;horizontal=0;startSize=0;swimlaneHead=0;swimlaneBody=0;strokeColor=inherit;top=0;left=0;bottom=0;right=0;collapsible=0;dropTarget=0;fillColor=none;points=[[0,0.5],[1,0.5]];portConstraint=eastwest;" parent="A6qeI73UASJIK5Bc831--14" vertex="1">
          <mxGeometry y="150" width="139.00000000000045" height="40" as="geometry" />
        </mxCell>
        <mxCell id="WCEEy9OTSrLAwlzTOgqZ-22" value="FK" style="shape=partialRectangle;html=1;whiteSpace=wrap;connectable=0;strokeColor=inherit;overflow=hidden;fillColor=none;top=0;left=0;bottom=0;right=0;pointerEvents=1;" parent="WCEEy9OTSrLAwlzTOgqZ-21" vertex="1">
          <mxGeometry width="60" height="40" as="geometry">
            <mxRectangle width="60" height="40" as="alternateBounds" />
          </mxGeometry>
        </mxCell>
        <mxCell id="WCEEy9OTSrLAwlzTOgqZ-23" value="id_group" style="shape=partialRectangle;html=1;whiteSpace=wrap;connectable=0;strokeColor=inherit;overflow=hidden;fillColor=none;top=0;left=0;bottom=0;right=0;pointerEvents=1;" parent="WCEEy9OTSrLAwlzTOgqZ-21" vertex="1">
          <mxGeometry x="60" width="79" height="40" as="geometry">
            <mxRectangle width="79" height="40" as="alternateBounds" />
          </mxGeometry>
        </mxCell>
        <mxCell id="A6qeI73UASJIK5Bc831--159" value="" style="shape=tableRow;horizontal=0;startSize=0;swimlaneHead=0;swimlaneBody=0;strokeColor=inherit;top=0;left=0;bottom=0;right=0;collapsible=0;dropTarget=0;fillColor=none;points=[[0,0.5],[1,0.5]];portConstraint=eastwest;" parent="A6qeI73UASJIK5Bc831--14" vertex="1">
          <mxGeometry y="190" width="139.00000000000045" height="40" as="geometry" />
        </mxCell>
        <mxCell id="A6qeI73UASJIK5Bc831--160" value="FK" style="shape=partialRectangle;html=1;whiteSpace=wrap;connectable=0;strokeColor=inherit;overflow=hidden;fillColor=none;top=0;left=0;bottom=0;right=0;pointerEvents=1;" parent="A6qeI73UASJIK5Bc831--159" vertex="1">
          <mxGeometry width="60" height="40" as="geometry">
            <mxRectangle width="60" height="40" as="alternateBounds" />
          </mxGeometry>
        </mxCell>
        <mxCell id="A6qeI73UASJIK5Bc831--161" value="file" style="shape=partialRectangle;html=1;whiteSpace=wrap;connectable=0;strokeColor=inherit;overflow=hidden;fillColor=none;top=0;left=0;bottom=0;right=0;pointerEvents=1;" parent="A6qeI73UASJIK5Bc831--159" vertex="1">
          <mxGeometry x="60" width="79" height="40" as="geometry">
            <mxRectangle width="79" height="40" as="alternateBounds" />
          </mxGeometry>
        </mxCell>
        <mxCell id="A6qeI73UASJIK5Bc831--24" value="masseger_group" style="shape=table;startSize=30;container=1;collapsible=0;childLayout=tableLayout;fillColor=default;strokeColor=#82b366;shadow=1;sketch=1;curveFitting=1;jiggle=2;" parent="1" vertex="1">
          <mxGeometry x="-519" y="384" width="139.00000000000045" height="270" as="geometry" />
        </mxCell>
        <mxCell id="A6qeI73UASJIK5Bc831--25" value="" style="shape=tableRow;horizontal=0;startSize=0;swimlaneHead=0;swimlaneBody=0;strokeColor=inherit;top=0;left=0;bottom=0;right=0;collapsible=0;dropTarget=0;fillColor=none;points=[[0,0.5],[1,0.5]];portConstraint=eastwest;" parent="A6qeI73UASJIK5Bc831--24" vertex="1">
          <mxGeometry y="30" width="139.00000000000045" height="40" as="geometry" />
        </mxCell>
        <mxCell id="A6qeI73UASJIK5Bc831--26" value="PK" style="shape=partialRectangle;html=1;whiteSpace=wrap;connectable=0;strokeColor=inherit;overflow=hidden;fillColor=none;top=0;left=0;bottom=0;right=0;pointerEvents=1;" parent="A6qeI73UASJIK5Bc831--25" vertex="1">
          <mxGeometry width="60" height="40" as="geometry">
            <mxRectangle width="60" height="40" as="alternateBounds" />
          </mxGeometry>
        </mxCell>
        <mxCell id="A6qeI73UASJIK5Bc831--27" value="uuid" style="shape=partialRectangle;html=1;whiteSpace=wrap;connectable=0;strokeColor=inherit;overflow=hidden;fillColor=none;top=0;left=0;bottom=0;right=0;pointerEvents=1;" parent="A6qeI73UASJIK5Bc831--25" vertex="1">
          <mxGeometry x="60" width="79" height="40" as="geometry">
            <mxRectangle width="79" height="40" as="alternateBounds" />
          </mxGeometry>
        </mxCell>
        <mxCell id="A6qeI73UASJIK5Bc831--28" value="" style="shape=tableRow;horizontal=0;startSize=0;swimlaneHead=0;swimlaneBody=0;strokeColor=inherit;top=0;left=0;bottom=0;right=0;collapsible=0;dropTarget=0;fillColor=none;points=[[0,0.5],[1,0.5]];portConstraint=eastwest;" parent="A6qeI73UASJIK5Bc831--24" vertex="1">
          <mxGeometry y="70" width="139.00000000000045" height="40" as="geometry" />
        </mxCell>
        <mxCell id="A6qeI73UASJIK5Bc831--29" value="datatime" style="shape=partialRectangle;html=1;whiteSpace=wrap;connectable=0;strokeColor=inherit;overflow=hidden;fillColor=none;top=0;left=0;bottom=0;right=0;pointerEvents=1;" parent="A6qeI73UASJIK5Bc831--28" vertex="1">
          <mxGeometry width="60" height="40" as="geometry">
            <mxRectangle width="60" height="40" as="alternateBounds" />
          </mxGeometry>
        </mxCell>
        <mxCell id="A6qeI73UASJIK5Bc831--30" value="timestapp" style="shape=partialRectangle;html=1;whiteSpace=wrap;connectable=0;strokeColor=inherit;overflow=hidden;fillColor=none;top=0;left=0;bottom=0;right=0;pointerEvents=1;" parent="A6qeI73UASJIK5Bc831--28" vertex="1">
          <mxGeometry x="60" width="79" height="40" as="geometry">
            <mxRectangle width="79" height="40" as="alternateBounds" />
          </mxGeometry>
        </mxCell>
        <mxCell id="WCEEy9OTSrLAwlzTOgqZ-11" style="shape=tableRow;horizontal=0;startSize=0;swimlaneHead=0;swimlaneBody=0;strokeColor=inherit;top=0;left=0;bottom=0;right=0;collapsible=0;dropTarget=0;fillColor=none;points=[[0,0.5],[1,0.5]];portConstraint=eastwest;" parent="A6qeI73UASJIK5Bc831--24" vertex="1">
          <mxGeometry y="110" width="139.00000000000045" height="40" as="geometry" />
        </mxCell>
        <mxCell id="WCEEy9OTSrLAwlzTOgqZ-12" value="carcharm" style="shape=partialRectangle;html=1;whiteSpace=wrap;connectable=0;strokeColor=inherit;overflow=hidden;fillColor=none;top=0;left=0;bottom=0;right=0;pointerEvents=1;" parent="WCEEy9OTSrLAwlzTOgqZ-11" vertex="1">
          <mxGeometry width="60" height="40" as="geometry">
            <mxRectangle width="60" height="40" as="alternateBounds" />
          </mxGeometry>
        </mxCell>
        <mxCell id="WCEEy9OTSrLAwlzTOgqZ-13" value="name_group" style="shape=partialRectangle;html=1;whiteSpace=wrap;connectable=0;strokeColor=inherit;overflow=hidden;fillColor=none;top=0;left=0;bottom=0;right=0;pointerEvents=1;" parent="WCEEy9OTSrLAwlzTOgqZ-11" vertex="1">
          <mxGeometry x="60" width="79" height="40" as="geometry">
            <mxRectangle width="79" height="40" as="alternateBounds" />
          </mxGeometry>
        </mxCell>
        <mxCell id="WCEEy9OTSrLAwlzTOgqZ-14" style="shape=tableRow;horizontal=0;startSize=0;swimlaneHead=0;swimlaneBody=0;strokeColor=inherit;top=0;left=0;bottom=0;right=0;collapsible=0;dropTarget=0;fillColor=none;points=[[0,0.5],[1,0.5]];portConstraint=eastwest;" parent="A6qeI73UASJIK5Bc831--24" vertex="1">
          <mxGeometry y="150" width="139.00000000000045" height="40" as="geometry" />
        </mxCell>
        <mxCell id="WCEEy9OTSrLAwlzTOgqZ-15" value="FK" style="shape=partialRectangle;html=1;whiteSpace=wrap;connectable=0;strokeColor=inherit;overflow=hidden;fillColor=none;top=0;left=0;bottom=0;right=0;pointerEvents=1;" parent="WCEEy9OTSrLAwlzTOgqZ-14" vertex="1">
          <mxGeometry width="60" height="40" as="geometry">
            <mxRectangle width="60" height="40" as="alternateBounds" />
          </mxGeometry>
        </mxCell>
        <mxCell id="WCEEy9OTSrLAwlzTOgqZ-16" value="members" style="shape=partialRectangle;html=1;whiteSpace=wrap;connectable=0;strokeColor=inherit;overflow=hidden;fillColor=none;top=0;left=0;bottom=0;right=0;pointerEvents=1;" parent="WCEEy9OTSrLAwlzTOgqZ-14" vertex="1">
          <mxGeometry x="60" width="79" height="40" as="geometry">
            <mxRectangle width="79" height="40" as="alternateBounds" />
          </mxGeometry>
        </mxCell>
        <mxCell id="A6qeI73UASJIK5Bc831--63" value="" style="shape=tableRow;horizontal=0;startSize=0;swimlaneHead=0;swimlaneBody=0;strokeColor=inherit;top=0;left=0;bottom=0;right=0;collapsible=0;dropTarget=0;fillColor=none;points=[[0,0.5],[1,0.5]];portConstraint=eastwest;" parent="A6qeI73UASJIK5Bc831--24" vertex="1">
          <mxGeometry y="190" width="139.00000000000045" height="40" as="geometry" />
        </mxCell>
        <mxCell id="A6qeI73UASJIK5Bc831--64" value="varcharm" style="shape=partialRectangle;html=1;whiteSpace=wrap;connectable=0;strokeColor=inherit;overflow=hidden;fillColor=none;top=0;left=0;bottom=0;right=0;pointerEvents=1;" parent="A6qeI73UASJIK5Bc831--63" vertex="1">
          <mxGeometry width="60" height="40" as="geometry">
            <mxRectangle width="60" height="40" as="alternateBounds" />
          </mxGeometry>
        </mxCell>
        <mxCell id="A6qeI73UASJIK5Bc831--65" value="title_order" style="shape=partialRectangle;html=1;whiteSpace=wrap;connectable=0;strokeColor=inherit;overflow=hidden;fillColor=none;top=0;left=0;bottom=0;right=0;pointerEvents=1;" parent="A6qeI73UASJIK5Bc831--63" vertex="1">
          <mxGeometry x="60" width="79" height="40" as="geometry">
            <mxRectangle width="79" height="40" as="alternateBounds" />
          </mxGeometry>
        </mxCell>
        <mxCell id="A6qeI73UASJIK5Bc831--119" value="" style="shape=tableRow;horizontal=0;startSize=0;swimlaneHead=0;swimlaneBody=0;strokeColor=inherit;top=0;left=0;bottom=0;right=0;collapsible=0;dropTarget=0;fillColor=none;points=[[0,0.5],[1,0.5]];portConstraint=eastwest;" parent="A6qeI73UASJIK5Bc831--24" vertex="1">
          <mxGeometry y="230" width="139.00000000000045" height="40" as="geometry" />
        </mxCell>
        <mxCell id="A6qeI73UASJIK5Bc831--120" value="boolean" style="shape=partialRectangle;html=1;whiteSpace=wrap;connectable=0;strokeColor=inherit;overflow=hidden;fillColor=none;top=0;left=0;bottom=0;right=0;pointerEvents=1;" parent="A6qeI73UASJIK5Bc831--119" vertex="1">
          <mxGeometry width="60" height="40" as="geometry">
            <mxRectangle width="60" height="40" as="alternateBounds" />
          </mxGeometry>
        </mxCell>
        <mxCell id="A6qeI73UASJIK5Bc831--121" value="hide" style="shape=partialRectangle;html=1;whiteSpace=wrap;connectable=0;strokeColor=inherit;overflow=hidden;fillColor=none;top=0;left=0;bottom=0;right=0;pointerEvents=1;" parent="A6qeI73UASJIK5Bc831--119" vertex="1">
          <mxGeometry x="60" width="79" height="40" as="geometry">
            <mxRectangle width="79" height="40" as="alternateBounds" />
          </mxGeometry>
        </mxCell>
        <mxCell id="7pfBd49NYhUK_aFZ7S1I-13" style="edgeStyle=orthogonalEdgeStyle;rounded=0;orthogonalLoop=1;jettySize=auto;html=1;" parent="1" source="A6qeI73UASJIK5Bc831--37" target="7pfBd49NYhUK_aFZ7S1I-6" edge="1">
          <mxGeometry relative="1" as="geometry" />
        </mxCell>
        <mxCell id="A6qeI73UASJIK5Bc831--37" value="Sub_Status" style="shape=table;startSize=30;container=1;collapsible=0;childLayout=tableLayout;fillColor=#d5e8d4;strokeColor=#82b366;shadow=1;sketch=1;curveFitting=1;jiggle=2;" parent="1" vertex="1">
          <mxGeometry x="490" y="842.8399999999999" width="139.00000000000045" height="150" as="geometry" />
        </mxCell>
        <mxCell id="A6qeI73UASJIK5Bc831--38" value="" style="shape=tableRow;horizontal=0;startSize=0;swimlaneHead=0;swimlaneBody=0;strokeColor=inherit;top=0;left=0;bottom=0;right=0;collapsible=0;dropTarget=0;fillColor=none;points=[[0,0.5],[1,0.5]];portConstraint=eastwest;" parent="A6qeI73UASJIK5Bc831--37" vertex="1">
          <mxGeometry y="30" width="139.00000000000045" height="40" as="geometry" />
        </mxCell>
        <mxCell id="A6qeI73UASJIK5Bc831--39" value="varchrm" style="shape=partialRectangle;html=1;whiteSpace=wrap;connectable=0;strokeColor=inherit;overflow=hidden;fillColor=none;top=0;left=0;bottom=0;right=0;pointerEvents=1;" parent="A6qeI73UASJIK5Bc831--38" vertex="1">
          <mxGeometry width="60" height="40" as="geometry">
            <mxRectangle width="60" height="40" as="alternateBounds" />
          </mxGeometry>
        </mxCell>
        <mxCell id="A6qeI73UASJIK5Bc831--40" value="Saller`" style="shape=partialRectangle;html=1;whiteSpace=wrap;connectable=0;strokeColor=inherit;overflow=hidden;fillColor=none;top=0;left=0;bottom=0;right=0;pointerEvents=1;" parent="A6qeI73UASJIK5Bc831--38" vertex="1">
          <mxGeometry x="60" width="79" height="40" as="geometry">
            <mxRectangle width="79" height="40" as="alternateBounds" />
          </mxGeometry>
        </mxCell>
        <mxCell id="A6qeI73UASJIK5Bc831--41" value="" style="shape=tableRow;horizontal=0;startSize=0;swimlaneHead=0;swimlaneBody=0;strokeColor=inherit;top=0;left=0;bottom=0;right=0;collapsible=0;dropTarget=0;fillColor=none;points=[[0,0.5],[1,0.5]];portConstraint=eastwest;" parent="A6qeI73UASJIK5Bc831--37" vertex="1">
          <mxGeometry y="70" width="139.00000000000045" height="40" as="geometry" />
        </mxCell>
        <mxCell id="A6qeI73UASJIK5Bc831--42" value="varcharm" style="shape=partialRectangle;html=1;whiteSpace=wrap;connectable=0;strokeColor=inherit;overflow=hidden;fillColor=none;top=0;left=0;bottom=0;right=0;pointerEvents=1;" parent="A6qeI73UASJIK5Bc831--41" vertex="1">
          <mxGeometry width="60" height="40" as="geometry">
            <mxRectangle width="60" height="40" as="alternateBounds" />
          </mxGeometry>
        </mxCell>
        <mxCell id="A6qeI73UASJIK5Bc831--43" value="Buyer" style="shape=partialRectangle;html=1;whiteSpace=wrap;connectable=0;strokeColor=inherit;overflow=hidden;fillColor=none;top=0;left=0;bottom=0;right=0;pointerEvents=1;" parent="A6qeI73UASJIK5Bc831--41" vertex="1">
          <mxGeometry x="60" width="79" height="40" as="geometry">
            <mxRectangle width="79" height="40" as="alternateBounds" />
          </mxGeometry>
        </mxCell>
        <mxCell id="A6qeI73UASJIK5Bc831--44" value="" style="shape=tableRow;horizontal=0;startSize=0;swimlaneHead=0;swimlaneBody=0;strokeColor=inherit;top=0;left=0;bottom=0;right=0;collapsible=0;dropTarget=0;fillColor=none;points=[[0,0.5],[1,0.5]];portConstraint=eastwest;" parent="A6qeI73UASJIK5Bc831--37" vertex="1">
          <mxGeometry y="110" width="139.00000000000045" height="40" as="geometry" />
        </mxCell>
        <mxCell id="A6qeI73UASJIK5Bc831--45" value="" style="shape=partialRectangle;html=1;whiteSpace=wrap;connectable=0;strokeColor=inherit;overflow=hidden;fillColor=none;top=0;left=0;bottom=0;right=0;pointerEvents=1;" parent="A6qeI73UASJIK5Bc831--44" vertex="1">
          <mxGeometry width="60" height="40" as="geometry">
            <mxRectangle width="60" height="40" as="alternateBounds" />
          </mxGeometry>
        </mxCell>
        <mxCell id="A6qeI73UASJIK5Bc831--46" value="" style="shape=partialRectangle;html=1;whiteSpace=wrap;connectable=0;strokeColor=inherit;overflow=hidden;fillColor=none;top=0;left=0;bottom=0;right=0;pointerEvents=1;" parent="A6qeI73UASJIK5Bc831--44" vertex="1">
          <mxGeometry x="60" width="79" height="40" as="geometry">
            <mxRectangle width="79" height="40" as="alternateBounds" />
          </mxGeometry>
        </mxCell>
        <mxCell id="7pfBd49NYhUK_aFZ7S1I-12" style="edgeStyle=orthogonalEdgeStyle;rounded=0;orthogonalLoop=1;jettySize=auto;html=1;entryX=1;entryY=0.5;entryDx=0;entryDy=0;" parent="1" source="A6qeI73UASJIK5Bc831--47" target="7pfBd49NYhUK_aFZ7S1I-3" edge="1">
          <mxGeometry relative="1" as="geometry" />
        </mxCell>
        <mxCell id="A6qeI73UASJIK5Bc831--47" value="Status" style="shape=table;startSize=30;container=1;collapsible=0;childLayout=tableLayout;fillColor=#d5e8d4;strokeColor=#82b366;shadow=1;sketch=1;curveFitting=1;jiggle=2;" parent="1" vertex="1">
          <mxGeometry x="500" y="512.8399999999999" width="139.00000000000045" height="150" as="geometry" />
        </mxCell>
        <mxCell id="A6qeI73UASJIK5Bc831--48" value="" style="shape=tableRow;horizontal=0;startSize=0;swimlaneHead=0;swimlaneBody=0;strokeColor=inherit;top=0;left=0;bottom=0;right=0;collapsible=0;dropTarget=0;fillColor=none;points=[[0,0.5],[1,0.5]];portConstraint=eastwest;" parent="A6qeI73UASJIK5Bc831--47" vertex="1">
          <mxGeometry y="30" width="139.00000000000045" height="40" as="geometry" />
        </mxCell>
        <mxCell id="A6qeI73UASJIK5Bc831--49" value="varchrm" style="shape=partialRectangle;html=1;whiteSpace=wrap;connectable=0;strokeColor=inherit;overflow=hidden;fillColor=none;top=0;left=0;bottom=0;right=0;pointerEvents=1;" parent="A6qeI73UASJIK5Bc831--48" vertex="1">
          <mxGeometry width="60" height="40" as="geometry">
            <mxRectangle width="60" height="40" as="alternateBounds" />
          </mxGeometry>
        </mxCell>
        <mxCell id="A6qeI73UASJIK5Bc831--50" value="Author" style="shape=partialRectangle;html=1;whiteSpace=wrap;connectable=0;strokeColor=inherit;overflow=hidden;fillColor=none;top=0;left=0;bottom=0;right=0;pointerEvents=1;" parent="A6qeI73UASJIK5Bc831--48" vertex="1">
          <mxGeometry x="60" width="79" height="40" as="geometry">
            <mxRectangle width="79" height="40" as="alternateBounds" />
          </mxGeometry>
        </mxCell>
        <mxCell id="A6qeI73UASJIK5Bc831--51" value="" style="shape=tableRow;horizontal=0;startSize=0;swimlaneHead=0;swimlaneBody=0;strokeColor=inherit;top=0;left=0;bottom=0;right=0;collapsible=0;dropTarget=0;fillColor=none;points=[[0,0.5],[1,0.5]];portConstraint=eastwest;" parent="A6qeI73UASJIK5Bc831--47" vertex="1">
          <mxGeometry y="70" width="139.00000000000045" height="40" as="geometry" />
        </mxCell>
        <mxCell id="A6qeI73UASJIK5Bc831--52" value="varcharm" style="shape=partialRectangle;html=1;whiteSpace=wrap;connectable=0;strokeColor=inherit;overflow=hidden;fillColor=none;top=0;left=0;bottom=0;right=0;pointerEvents=1;" parent="A6qeI73UASJIK5Bc831--51" vertex="1">
          <mxGeometry width="60" height="40" as="geometry">
            <mxRectangle width="60" height="40" as="alternateBounds" />
          </mxGeometry>
        </mxCell>
        <mxCell id="A6qeI73UASJIK5Bc831--53" value="NoAuthor" style="shape=partialRectangle;html=1;whiteSpace=wrap;connectable=0;strokeColor=inherit;overflow=hidden;fillColor=none;top=0;left=0;bottom=0;right=0;pointerEvents=1;" parent="A6qeI73UASJIK5Bc831--51" vertex="1">
          <mxGeometry x="60" width="79" height="40" as="geometry">
            <mxRectangle width="79" height="40" as="alternateBounds" />
          </mxGeometry>
        </mxCell>
        <mxCell id="A6qeI73UASJIK5Bc831--54" value="" style="shape=tableRow;horizontal=0;startSize=0;swimlaneHead=0;swimlaneBody=0;strokeColor=inherit;top=0;left=0;bottom=0;right=0;collapsible=0;dropTarget=0;fillColor=none;points=[[0,0.5],[1,0.5]];portConstraint=eastwest;" parent="A6qeI73UASJIK5Bc831--47" vertex="1">
          <mxGeometry y="110" width="139.00000000000045" height="40" as="geometry" />
        </mxCell>
        <mxCell id="A6qeI73UASJIK5Bc831--55" value="" style="shape=partialRectangle;html=1;whiteSpace=wrap;connectable=0;strokeColor=inherit;overflow=hidden;fillColor=none;top=0;left=0;bottom=0;right=0;pointerEvents=1;" parent="A6qeI73UASJIK5Bc831--54" vertex="1">
          <mxGeometry width="60" height="40" as="geometry">
            <mxRectangle width="60" height="40" as="alternateBounds" />
          </mxGeometry>
        </mxCell>
        <mxCell id="A6qeI73UASJIK5Bc831--56" value="" style="shape=partialRectangle;html=1;whiteSpace=wrap;connectable=0;strokeColor=inherit;overflow=hidden;fillColor=none;top=0;left=0;bottom=0;right=0;pointerEvents=1;" parent="A6qeI73UASJIK5Bc831--54" vertex="1">
          <mxGeometry x="60" width="79" height="40" as="geometry">
            <mxRectangle width="79" height="40" as="alternateBounds" />
          </mxGeometry>
        </mxCell>
        <mxCell id="A6qeI73UASJIK5Bc831--67" style="edgeStyle=orthogonalEdgeStyle;rounded=0;orthogonalLoop=1;jettySize=auto;html=1;entryX=1;entryY=0.5;entryDx=0;entryDy=0;" parent="1" target="A6qeI73UASJIK5Bc831--38" edge="1">
          <mxGeometry relative="1" as="geometry" />
        </mxCell>
        <mxCell id="A6qeI73UASJIK5Bc831--68" style="edgeStyle=orthogonalEdgeStyle;rounded=0;orthogonalLoop=1;jettySize=auto;html=1;" parent="1" target="A6qeI73UASJIK5Bc831--48" edge="1">
          <mxGeometry relative="1" as="geometry" />
        </mxCell>
        <mxCell id="A6qeI73UASJIK5Bc831--74" value="&lt;p style=&quot;line-height: 120%;&quot;&gt;&lt;b style=&quot;&quot;&gt;&lt;i style=&quot;&quot;&gt;&lt;font style=&quot;font-size: 12px;&quot;&gt;п. 4.a&lt;/font&gt;&lt;/i&gt;&lt;/b&gt;&lt;/p&gt;" style="ellipse;shape=cloud;whiteSpace=wrap;html=1;shadow=1;strokeColor=#A8A4A4;fillColor=default;fillStyle=auto;" parent="1" vertex="1">
          <mxGeometry x="350" y="992.8399999999999" width="90" height="60" as="geometry" />
        </mxCell>
        <mxCell id="A6qeI73UASJIK5Bc831--75" style="edgeStyle=orthogonalEdgeStyle;rounded=0;orthogonalLoop=1;jettySize=auto;html=1;entryX=0.009;entryY=0.104;entryDx=0;entryDy=0;entryPerimeter=0;strokeColor=#CFCFCF;" parent="1" source="A6qeI73UASJIK5Bc831--74" target="A6qeI73UASJIK5Bc831--37" edge="1">
          <mxGeometry relative="1" as="geometry" />
        </mxCell>
        <mxCell id="A6qeI73UASJIK5Bc831--80" style="edgeStyle=orthogonalEdgeStyle;rounded=0;orthogonalLoop=1;jettySize=auto;html=1;strokeColor=#D1D1D1;" parent="1" source="A6qeI73UASJIK5Bc831--79" target="A6qeI73UASJIK5Bc831--63" edge="1">
          <mxGeometry relative="1" as="geometry" />
        </mxCell>
        <mxCell id="A6qeI73UASJIK5Bc831--79" value="&lt;p style=&quot;line-height: 120%;&quot;&gt;&lt;b style=&quot;&quot;&gt;&lt;i style=&quot;&quot;&gt;&lt;font style=&quot;font-size: 12px;&quot;&gt;п. 5.a&lt;/font&gt;&lt;/i&gt;&lt;/b&gt;&lt;/p&gt;" style="ellipse;shape=cloud;whiteSpace=wrap;html=1;shadow=1;strokeColor=#A8A4A4;fillColor=default;fillStyle=auto;" parent="1" vertex="1">
          <mxGeometry x="-660" y="694" width="90" height="60" as="geometry" />
        </mxCell>
        <mxCell id="A6qeI73UASJIK5Bc831--126" style="edgeStyle=orthogonalEdgeStyle;rounded=0;orthogonalLoop=1;jettySize=auto;html=1;entryX=0;entryY=0.5;entryDx=0;entryDy=0;strokeColor=#CFCFCF;" parent="1" source="A6qeI73UASJIK5Bc831--122" target="A6qeI73UASJIK5Bc831--119" edge="1">
          <mxGeometry relative="1" as="geometry">
            <Array as="points">
              <mxPoint x="-570" y="790" />
              <mxPoint x="-540" y="790" />
              <mxPoint x="-540" y="793" />
            </Array>
          </mxGeometry>
        </mxCell>
        <mxCell id="A6qeI73UASJIK5Bc831--122" value="&lt;p style=&quot;line-height: 120%;&quot;&gt;&lt;b style=&quot;&quot;&gt;&lt;i style=&quot;&quot;&gt;&lt;font style=&quot;font-size: 12px;&quot;&gt;пп. 5.eь 6&lt;/font&gt;&lt;/i&gt;&lt;/b&gt;&lt;/p&gt;" style="ellipse;shape=cloud;whiteSpace=wrap;html=1;shadow=1;strokeColor=#A8A4A4;fillColor=default;fillStyle=auto;" parent="1" vertex="1">
          <mxGeometry x="-638" y="820" width="90" height="60" as="geometry" />
        </mxCell>
        <mxCell id="A6qeI73UASJIK5Bc831--128" style="edgeStyle=orthogonalEdgeStyle;rounded=0;orthogonalLoop=1;jettySize=auto;html=1;entryX=1;entryY=0.5;entryDx=0;entryDy=0;strokeColor=#D6D6D6;" parent="1" source="A6qeI73UASJIK5Bc831--127" target="A6qeI73UASJIK5Bc831--18" edge="1">
          <mxGeometry relative="1" as="geometry" />
        </mxCell>
        <mxCell id="A6qeI73UASJIK5Bc831--127" value="&lt;p style=&quot;line-height: 120%;&quot;&gt;&lt;i&gt;A message&#39;s list. It&#39;s &lt;br&gt;JSON format&lt;/i&gt;&lt;/p&gt;" style="ellipse;shape=cloud;whiteSpace=wrap;html=1;shadow=1;strokeColor=#A8A4A4;fillColor=default;fillStyle=auto;" parent="1" vertex="1">
          <mxGeometry x="-130" y="110" width="170" height="60" as="geometry" />
        </mxCell>
        <mxCell id="A6qeI73UASJIK5Bc831--130" style="edgeStyle=orthogonalEdgeStyle;rounded=0;orthogonalLoop=1;jettySize=auto;html=1;entryX=1;entryY=0.5;entryDx=0;entryDy=0;strokeColor=#D1D1D1;" parent="1" source="A6qeI73UASJIK5Bc831--129" target="A6qeI73UASJIK5Bc831--21" edge="1">
          <mxGeometry relative="1" as="geometry">
            <Array as="points">
              <mxPoint x="100" y="318" />
            </Array>
          </mxGeometry>
        </mxCell>
        <mxCell id="A6qeI73UASJIK5Bc831--129" value="&lt;p style=&quot;line-height: 120%;&quot;&gt;&lt;i style=&quot;&quot;&gt;&lt;font style=&quot;font-size: 12px;&quot;&gt;time a message&#39;s create and change&amp;nbsp;&lt;/font&gt;&lt;/i&gt;&lt;/p&gt;" style="ellipse;shape=cloud;whiteSpace=wrap;html=1;shadow=1;strokeColor=#A8A4A4;fillColor=default;fillStyle=auto;" parent="1" vertex="1">
          <mxGeometry x="65.5" y="109.99999999999994" width="270" height="60" as="geometry" />
        </mxCell>
        <mxCell id="A6qeI73UASJIK5Bc831--136" value="masseger_files" style="shape=table;startSize=30;container=1;collapsible=0;childLayout=tableLayout;fillColor=#d5e8d4;strokeColor=#82b366;shadow=1;sketch=1;curveFitting=1;jiggle=2;" parent="1" vertex="1">
          <mxGeometry x="-64" y="402.84" width="139.00000000000045" height="110" as="geometry" />
        </mxCell>
        <mxCell id="A6qeI73UASJIK5Bc831--137" value="" style="shape=tableRow;horizontal=0;startSize=0;swimlaneHead=0;swimlaneBody=0;strokeColor=inherit;top=0;left=0;bottom=0;right=0;collapsible=0;dropTarget=0;fillColor=none;points=[[0,0.5],[1,0.5]];portConstraint=eastwest;" parent="A6qeI73UASJIK5Bc831--136" vertex="1">
          <mxGeometry y="30" width="139.00000000000045" height="40" as="geometry" />
        </mxCell>
        <mxCell id="A6qeI73UASJIK5Bc831--138" value="varchrm" style="shape=partialRectangle;html=1;whiteSpace=wrap;connectable=0;strokeColor=inherit;overflow=hidden;fillColor=none;top=0;left=0;bottom=0;right=0;pointerEvents=1;" parent="A6qeI73UASJIK5Bc831--137" vertex="1">
          <mxGeometry width="60" height="40" as="geometry">
            <mxRectangle width="60" height="40" as="alternateBounds" />
          </mxGeometry>
        </mxCell>
        <mxCell id="A6qeI73UASJIK5Bc831--139" value="link" style="shape=partialRectangle;html=1;whiteSpace=wrap;connectable=0;strokeColor=inherit;overflow=hidden;fillColor=none;top=0;left=0;bottom=0;right=0;pointerEvents=1;" parent="A6qeI73UASJIK5Bc831--137" vertex="1">
          <mxGeometry x="60" width="79" height="40" as="geometry">
            <mxRectangle width="79" height="40" as="alternateBounds" />
          </mxGeometry>
        </mxCell>
        <mxCell id="A6qeI73UASJIK5Bc831--143" value="" style="shape=tableRow;horizontal=0;startSize=0;swimlaneHead=0;swimlaneBody=0;strokeColor=inherit;top=0;left=0;bottom=0;right=0;collapsible=0;dropTarget=0;fillColor=none;points=[[0,0.5],[1,0.5]];portConstraint=eastwest;" parent="A6qeI73UASJIK5Bc831--136" vertex="1">
          <mxGeometry y="70" width="139.00000000000045" height="40" as="geometry" />
        </mxCell>
        <mxCell id="A6qeI73UASJIK5Bc831--144" value="integer" style="shape=partialRectangle;html=1;whiteSpace=wrap;connectable=0;strokeColor=inherit;overflow=hidden;fillColor=none;top=0;left=0;bottom=0;right=0;pointerEvents=1;" parent="A6qeI73UASJIK5Bc831--143" vertex="1">
          <mxGeometry width="60" height="40" as="geometry">
            <mxRectangle width="60" height="40" as="alternateBounds" />
          </mxGeometry>
        </mxCell>
        <mxCell id="A6qeI73UASJIK5Bc831--145" value="size_file" style="shape=partialRectangle;html=1;whiteSpace=wrap;connectable=0;strokeColor=inherit;overflow=hidden;fillColor=none;top=0;left=0;bottom=0;right=0;pointerEvents=1;" parent="A6qeI73UASJIK5Bc831--143" vertex="1">
          <mxGeometry x="60" width="79" height="40" as="geometry">
            <mxRectangle width="79" height="40" as="alternateBounds" />
          </mxGeometry>
        </mxCell>
        <mxCell id="A6qeI73UASJIK5Bc831--162" style="edgeStyle=orthogonalEdgeStyle;rounded=0;orthogonalLoop=1;jettySize=auto;html=1;entryX=-0.003;entryY=0.73;entryDx=0;entryDy=0;entryPerimeter=0;strokeColor=#C9C9C9;" parent="1" source="A6qeI73UASJIK5Bc831--159" target="A6qeI73UASJIK5Bc831--137" edge="1">
          <mxGeometry relative="1" as="geometry" />
        </mxCell>
        <mxCell id="WCEEy9OTSrLAwlzTOgqZ-24" style="edgeStyle=orthogonalEdgeStyle;rounded=0;orthogonalLoop=1;jettySize=auto;html=1;entryX=1;entryY=0.5;entryDx=0;entryDy=0;" parent="1" source="WCEEy9OTSrLAwlzTOgqZ-21" target="A6qeI73UASJIK5Bc831--25" edge="1">
          <mxGeometry relative="1" as="geometry" />
        </mxCell>
        <mxCell id="WCEEy9OTSrLAwlzTOgqZ-57" style="edgeStyle=orthogonalEdgeStyle;rounded=0;orthogonalLoop=1;jettySize=auto;html=1;entryX=1;entryY=0.5;entryDx=0;entryDy=0;strokeColor=#D6D6D6;" parent="1" source="WCEEy9OTSrLAwlzTOgqZ-56" target="A6qeI73UASJIK5Bc831--28" edge="1">
          <mxGeometry relative="1" as="geometry" />
        </mxCell>
        <mxCell id="WCEEy9OTSrLAwlzTOgqZ-56" value="&lt;p style=&quot;line-height: 120%;&quot;&gt;&lt;i&gt;this&#39;s the time&lt;br&gt;group&#39;s create&lt;/i&gt;&lt;/p&gt;" style="ellipse;shape=cloud;whiteSpace=wrap;html=1;shadow=1;strokeColor=#A8A4A4;fillColor=default;fillStyle=auto;" parent="1" vertex="1">
          <mxGeometry x="-310" y="470" width="126.5" height="47.16" as="geometry" />
        </mxCell>
        <mxCell id="WCEEy9OTSrLAwlzTOgqZ-61" value="masseger_event" style="shape=table;startSize=30;container=1;collapsible=0;childLayout=tableLayout;fillColor=default;strokeColor=#82b366;shadow=1;sketch=1;curveFitting=1;jiggle=2;" parent="1" vertex="1">
          <mxGeometry x="-242" y="830" width="139.00000000000045" height="270" as="geometry" />
        </mxCell>
        <mxCell id="WCEEy9OTSrLAwlzTOgqZ-65" value="" style="shape=tableRow;horizontal=0;startSize=0;swimlaneHead=0;swimlaneBody=0;strokeColor=inherit;top=0;left=0;bottom=0;right=0;collapsible=0;dropTarget=0;fillColor=none;points=[[0,0.5],[1,0.5]];portConstraint=eastwest;" parent="WCEEy9OTSrLAwlzTOgqZ-61" vertex="1">
          <mxGeometry y="30" width="139.00000000000045" height="40" as="geometry" />
        </mxCell>
        <mxCell id="WCEEy9OTSrLAwlzTOgqZ-66" value="varcharm" style="shape=partialRectangle;html=1;whiteSpace=wrap;connectable=0;strokeColor=inherit;overflow=hidden;fillColor=none;top=0;left=0;bottom=0;right=0;pointerEvents=1;" parent="WCEEy9OTSrLAwlzTOgqZ-65" vertex="1">
          <mxGeometry width="60" height="40" as="geometry">
            <mxRectangle width="60" height="40" as="alternateBounds" />
          </mxGeometry>
        </mxCell>
        <mxCell id="WCEEy9OTSrLAwlzTOgqZ-67" value="type" style="shape=partialRectangle;html=1;whiteSpace=wrap;connectable=0;strokeColor=inherit;overflow=hidden;fillColor=none;top=0;left=0;bottom=0;right=0;pointerEvents=1;" parent="WCEEy9OTSrLAwlzTOgqZ-65" vertex="1">
          <mxGeometry x="60" width="79" height="40" as="geometry">
            <mxRectangle width="79" height="40" as="alternateBounds" />
          </mxGeometry>
        </mxCell>
        <mxCell id="WCEEy9OTSrLAwlzTOgqZ-68" style="shape=tableRow;horizontal=0;startSize=0;swimlaneHead=0;swimlaneBody=0;strokeColor=inherit;top=0;left=0;bottom=0;right=0;collapsible=0;dropTarget=0;fillColor=none;points=[[0,0.5],[1,0.5]];portConstraint=eastwest;" parent="WCEEy9OTSrLAwlzTOgqZ-61" vertex="1">
          <mxGeometry y="70" width="139.00000000000045" height="40" as="geometry" />
        </mxCell>
        <mxCell id="WCEEy9OTSrLAwlzTOgqZ-69" value="varcharm" style="shape=partialRectangle;html=1;whiteSpace=wrap;connectable=0;strokeColor=inherit;overflow=hidden;fillColor=none;top=0;left=0;bottom=0;right=0;pointerEvents=1;" parent="WCEEy9OTSrLAwlzTOgqZ-68" vertex="1">
          <mxGeometry width="60" height="40" as="geometry">
            <mxRectangle width="60" height="40" as="alternateBounds" />
          </mxGeometry>
        </mxCell>
        <mxCell id="WCEEy9OTSrLAwlzTOgqZ-70" value="description" style="shape=partialRectangle;html=1;whiteSpace=wrap;connectable=0;strokeColor=inherit;overflow=hidden;fillColor=none;top=0;left=0;bottom=0;right=0;pointerEvents=1;" parent="WCEEy9OTSrLAwlzTOgqZ-68" vertex="1">
          <mxGeometry x="60" width="79" height="40" as="geometry">
            <mxRectangle width="79" height="40" as="alternateBounds" />
          </mxGeometry>
        </mxCell>
        <mxCell id="WCEEy9OTSrLAwlzTOgqZ-71" style="shape=tableRow;horizontal=0;startSize=0;swimlaneHead=0;swimlaneBody=0;strokeColor=inherit;top=0;left=0;bottom=0;right=0;collapsible=0;dropTarget=0;fillColor=none;points=[[0,0.5],[1,0.5]];portConstraint=eastwest;" parent="WCEEy9OTSrLAwlzTOgqZ-61" vertex="1">
          <mxGeometry y="110" width="139.00000000000045" height="40" as="geometry" />
        </mxCell>
        <mxCell id="WCEEy9OTSrLAwlzTOgqZ-72" value="FK" style="shape=partialRectangle;html=1;whiteSpace=wrap;connectable=0;strokeColor=inherit;overflow=hidden;fillColor=none;top=0;left=0;bottom=0;right=0;pointerEvents=1;" parent="WCEEy9OTSrLAwlzTOgqZ-71" vertex="1">
          <mxGeometry width="60" height="40" as="geometry">
            <mxRectangle width="60" height="40" as="alternateBounds" />
          </mxGeometry>
        </mxCell>
        <mxCell id="WCEEy9OTSrLAwlzTOgqZ-73" value="user" style="shape=partialRectangle;html=1;whiteSpace=wrap;connectable=0;strokeColor=inherit;overflow=hidden;fillColor=none;top=0;left=0;bottom=0;right=0;pointerEvents=1;" parent="WCEEy9OTSrLAwlzTOgqZ-71" vertex="1">
          <mxGeometry x="60" width="79" height="40" as="geometry">
            <mxRectangle width="79" height="40" as="alternateBounds" />
          </mxGeometry>
        </mxCell>
        <mxCell id="WCEEy9OTSrLAwlzTOgqZ-74" style="shape=tableRow;horizontal=0;startSize=0;swimlaneHead=0;swimlaneBody=0;strokeColor=inherit;top=0;left=0;bottom=0;right=0;collapsible=0;dropTarget=0;fillColor=none;points=[[0,0.5],[1,0.5]];portConstraint=eastwest;" parent="WCEEy9OTSrLAwlzTOgqZ-61" vertex="1">
          <mxGeometry y="150" width="139.00000000000045" height="40" as="geometry" />
        </mxCell>
        <mxCell id="WCEEy9OTSrLAwlzTOgqZ-75" value="datatime" style="shape=partialRectangle;html=1;whiteSpace=wrap;connectable=0;strokeColor=inherit;overflow=hidden;fillColor=none;top=0;left=0;bottom=0;right=0;pointerEvents=1;" parent="WCEEy9OTSrLAwlzTOgqZ-74" vertex="1">
          <mxGeometry width="60" height="40" as="geometry">
            <mxRectangle width="60" height="40" as="alternateBounds" />
          </mxGeometry>
        </mxCell>
        <mxCell id="WCEEy9OTSrLAwlzTOgqZ-76" value="timstamp" style="shape=partialRectangle;html=1;whiteSpace=wrap;connectable=0;strokeColor=inherit;overflow=hidden;fillColor=none;top=0;left=0;bottom=0;right=0;pointerEvents=1;" parent="WCEEy9OTSrLAwlzTOgqZ-74" vertex="1">
          <mxGeometry x="60" width="79" height="40" as="geometry">
            <mxRectangle width="79" height="40" as="alternateBounds" />
          </mxGeometry>
        </mxCell>
        <mxCell id="WCEEy9OTSrLAwlzTOgqZ-77" value="" style="shape=tableRow;horizontal=0;startSize=0;swimlaneHead=0;swimlaneBody=0;strokeColor=inherit;top=0;left=0;bottom=0;right=0;collapsible=0;dropTarget=0;fillColor=none;points=[[0,0.5],[1,0.5]];portConstraint=eastwest;" parent="WCEEy9OTSrLAwlzTOgqZ-61" vertex="1">
          <mxGeometry y="190" width="139.00000000000045" height="40" as="geometry" />
        </mxCell>
        <mxCell id="WCEEy9OTSrLAwlzTOgqZ-78" value="FK" style="shape=partialRectangle;html=1;whiteSpace=wrap;connectable=0;strokeColor=inherit;overflow=hidden;fillColor=none;top=0;left=0;bottom=0;right=0;pointerEvents=1;" parent="WCEEy9OTSrLAwlzTOgqZ-77" vertex="1">
          <mxGeometry width="60" height="40" as="geometry">
            <mxRectangle width="60" height="40" as="alternateBounds" />
          </mxGeometry>
        </mxCell>
        <mxCell id="WCEEy9OTSrLAwlzTOgqZ-79" value="group" style="shape=partialRectangle;html=1;whiteSpace=wrap;connectable=0;strokeColor=inherit;overflow=hidden;fillColor=none;top=0;left=0;bottom=0;right=0;pointerEvents=1;" parent="WCEEy9OTSrLAwlzTOgqZ-77" vertex="1">
          <mxGeometry x="60" width="79" height="40" as="geometry">
            <mxRectangle width="79" height="40" as="alternateBounds" />
          </mxGeometry>
        </mxCell>
        <mxCell id="WCEEy9OTSrLAwlzTOgqZ-89" value="" style="shape=tableRow;horizontal=0;startSize=0;swimlaneHead=0;swimlaneBody=0;strokeColor=inherit;top=0;left=0;bottom=0;right=0;collapsible=0;dropTarget=0;fillColor=none;points=[[0,0.5],[1,0.5]];portConstraint=eastwest;" parent="WCEEy9OTSrLAwlzTOgqZ-61" vertex="1">
          <mxGeometry y="230" width="139.00000000000045" height="40" as="geometry" />
        </mxCell>
        <mxCell id="WCEEy9OTSrLAwlzTOgqZ-90" value="" style="shape=partialRectangle;html=1;whiteSpace=wrap;connectable=0;strokeColor=inherit;overflow=hidden;fillColor=none;top=0;left=0;bottom=0;right=0;pointerEvents=1;" parent="WCEEy9OTSrLAwlzTOgqZ-89" vertex="1">
          <mxGeometry width="60" height="40" as="geometry">
            <mxRectangle width="60" height="40" as="alternateBounds" />
          </mxGeometry>
        </mxCell>
        <mxCell id="WCEEy9OTSrLAwlzTOgqZ-91" value="" style="shape=partialRectangle;html=1;whiteSpace=wrap;connectable=0;strokeColor=inherit;overflow=hidden;fillColor=none;top=0;left=0;bottom=0;right=0;pointerEvents=1;" parent="WCEEy9OTSrLAwlzTOgqZ-89" vertex="1">
          <mxGeometry x="60" width="79" height="40" as="geometry">
            <mxRectangle width="79" height="40" as="alternateBounds" />
          </mxGeometry>
        </mxCell>
        <mxCell id="WCEEy9OTSrLAwlzTOgqZ-95" style="edgeStyle=orthogonalEdgeStyle;rounded=0;orthogonalLoop=1;jettySize=auto;html=1;strokeColor=#C9C9C9;entryX=1;entryY=0.5;entryDx=0;entryDy=0;" parent="1" source="WCEEy9OTSrLAwlzTOgqZ-94" target="WCEEy9OTSrLAwlzTOgqZ-74" edge="1">
          <mxGeometry relative="1" as="geometry" />
        </mxCell>
        <mxCell id="WCEEy9OTSrLAwlzTOgqZ-94" value="&lt;b&gt;&lt;i&gt;time a group&#39;s create&lt;/i&gt;&lt;/b&gt;" style="ellipse;shape=cloud;whiteSpace=wrap;html=1;shadow=1;strokeColor=#A8A4A4;fillColor=default;fillStyle=auto;" parent="1" vertex="1">
          <mxGeometry x="-20" y="1010" width="190" height="60" as="geometry" />
        </mxCell>
        <mxCell id="WCEEy9OTSrLAwlzTOgqZ-97" style="edgeStyle=orthogonalEdgeStyle;rounded=0;orthogonalLoop=1;jettySize=auto;html=1;entryX=0.381;entryY=1;entryDx=0;entryDy=0;entryPerimeter=0;" parent="1" source="WCEEy9OTSrLAwlzTOgqZ-77" target="A6qeI73UASJIK5Bc831--119" edge="1">
          <mxGeometry relative="1" as="geometry" />
        </mxCell>
        <mxCell id="WCEEy9OTSrLAwlzTOgqZ-99" style="edgeStyle=orthogonalEdgeStyle;rounded=0;orthogonalLoop=1;jettySize=auto;html=1;" parent="1" source="WCEEy9OTSrLAwlzTOgqZ-14" edge="1" target="7pfBd49NYhUK_aFZ7S1I-2">
          <mxGeometry relative="1" as="geometry">
            <mxPoint x="-110" y="570" as="targetPoint" />
          </mxGeometry>
        </mxCell>
        <mxCell id="WCEEy9OTSrLAwlzTOgqZ-102" style="edgeStyle=orthogonalEdgeStyle;rounded=0;orthogonalLoop=1;jettySize=auto;html=1;entryX=0.75;entryY=0;entryDx=0;entryDy=0;" parent="1" source="WCEEy9OTSrLAwlzTOgqZ-58" edge="1" target="7pfBd49NYhUK_aFZ7S1I-2">
          <mxGeometry relative="1" as="geometry">
            <mxPoint x="50" y="278" as="targetPoint" />
          </mxGeometry>
        </mxCell>
        <mxCell id="7pfBd49NYhUK_aFZ7S1I-15" style="edgeStyle=orthogonalEdgeStyle;rounded=0;orthogonalLoop=1;jettySize=auto;html=1;" parent="1" source="7pfBd49NYhUK_aFZ7S1I-2" edge="1">
          <mxGeometry relative="1" as="geometry">
            <mxPoint x="370" y="580" as="targetPoint" />
          </mxGeometry>
        </mxCell>
        <mxCell id="7pfBd49NYhUK_aFZ7S1I-2" value="masseger_user" style="shape=table;startSize=30;container=1;collapsible=0;childLayout=tableLayout;fillColor=#d5e8d4;strokeColor=#82b366;shadow=1;sketch=1;curveFitting=1;jiggle=2;" parent="1" vertex="1">
          <mxGeometry x="131" y="649" width="139.00000000000045" height="150" as="geometry" />
        </mxCell>
        <mxCell id="7pfBd49NYhUK_aFZ7S1I-9" style="shape=tableRow;horizontal=0;startSize=0;swimlaneHead=0;swimlaneBody=0;strokeColor=inherit;top=0;left=0;bottom=0;right=0;collapsible=0;dropTarget=0;fillColor=none;points=[[0,0.5],[1,0.5]];portConstraint=eastwest;" parent="7pfBd49NYhUK_aFZ7S1I-2" vertex="1">
          <mxGeometry y="30" width="139.00000000000045" height="40" as="geometry" />
        </mxCell>
        <mxCell id="7pfBd49NYhUK_aFZ7S1I-10" value="OTO" style="shape=partialRectangle;html=1;whiteSpace=wrap;connectable=0;strokeColor=inherit;overflow=hidden;fillColor=none;top=0;left=0;bottom=0;right=0;pointerEvents=1;" parent="7pfBd49NYhUK_aFZ7S1I-9" vertex="1">
          <mxGeometry width="60" height="40" as="geometry">
            <mxRectangle width="60" height="40" as="alternateBounds" />
          </mxGeometry>
        </mxCell>
        <mxCell id="7pfBd49NYhUK_aFZ7S1I-11" value="user" style="shape=partialRectangle;html=1;whiteSpace=wrap;connectable=0;strokeColor=inherit;overflow=hidden;fillColor=none;top=0;left=0;bottom=0;right=0;pointerEvents=1;" parent="7pfBd49NYhUK_aFZ7S1I-9" vertex="1">
          <mxGeometry x="60" width="79" height="40" as="geometry">
            <mxRectangle width="79" height="40" as="alternateBounds" />
          </mxGeometry>
        </mxCell>
        <mxCell id="7pfBd49NYhUK_aFZ7S1I-3" value="" style="shape=tableRow;horizontal=0;startSize=0;swimlaneHead=0;swimlaneBody=0;strokeColor=inherit;top=0;left=0;bottom=0;right=0;collapsible=0;dropTarget=0;fillColor=none;points=[[0,0.5],[1,0.5]];portConstraint=eastwest;" parent="7pfBd49NYhUK_aFZ7S1I-2" vertex="1">
          <mxGeometry y="70" width="139.00000000000045" height="40" as="geometry" />
        </mxCell>
        <mxCell id="7pfBd49NYhUK_aFZ7S1I-4" value="varchrm" style="shape=partialRectangle;html=1;whiteSpace=wrap;connectable=0;strokeColor=inherit;overflow=hidden;fillColor=none;top=0;left=0;bottom=0;right=0;pointerEvents=1;" parent="7pfBd49NYhUK_aFZ7S1I-3" vertex="1">
          <mxGeometry width="60" height="40" as="geometry">
            <mxRectangle width="60" height="40" as="alternateBounds" />
          </mxGeometry>
        </mxCell>
        <mxCell id="7pfBd49NYhUK_aFZ7S1I-5" value="&lt;span style=&quot;text-wrap: nowrap;&quot;&gt;status&lt;/span&gt;" style="shape=partialRectangle;html=1;whiteSpace=wrap;connectable=0;strokeColor=inherit;overflow=hidden;fillColor=none;top=0;left=0;bottom=0;right=0;pointerEvents=1;" parent="7pfBd49NYhUK_aFZ7S1I-3" vertex="1">
          <mxGeometry x="60" width="79" height="40" as="geometry">
            <mxRectangle width="79" height="40" as="alternateBounds" />
          </mxGeometry>
        </mxCell>
        <mxCell id="7pfBd49NYhUK_aFZ7S1I-6" value="" style="shape=tableRow;horizontal=0;startSize=0;swimlaneHead=0;swimlaneBody=0;strokeColor=inherit;top=0;left=0;bottom=0;right=0;collapsible=0;dropTarget=0;fillColor=none;points=[[0,0.5],[1,0.5]];portConstraint=eastwest;" parent="7pfBd49NYhUK_aFZ7S1I-2" vertex="1">
          <mxGeometry y="110" width="139.00000000000045" height="40" as="geometry" />
        </mxCell>
        <mxCell id="7pfBd49NYhUK_aFZ7S1I-7" value="integer" style="shape=partialRectangle;html=1;whiteSpace=wrap;connectable=0;strokeColor=inherit;overflow=hidden;fillColor=none;top=0;left=0;bottom=0;right=0;pointerEvents=1;" parent="7pfBd49NYhUK_aFZ7S1I-6" vertex="1">
          <mxGeometry width="60" height="40" as="geometry">
            <mxRectangle width="60" height="40" as="alternateBounds" />
          </mxGeometry>
        </mxCell>
        <mxCell id="7pfBd49NYhUK_aFZ7S1I-8" value="&lt;span style=&quot;text-wrap: nowrap;&quot;&gt;sub_status&lt;/span&gt;" style="shape=partialRectangle;html=1;whiteSpace=wrap;connectable=0;strokeColor=inherit;overflow=hidden;fillColor=none;top=0;left=0;bottom=0;right=0;pointerEvents=1;" parent="7pfBd49NYhUK_aFZ7S1I-6" vertex="1">
          <mxGeometry x="60" width="79" height="40" as="geometry">
            <mxRectangle width="79" height="40" as="alternateBounds" />
          </mxGeometry>
        </mxCell>
        <mxCell id="7pfBd49NYhUK_aFZ7S1I-14" style="edgeStyle=orthogonalEdgeStyle;rounded=0;orthogonalLoop=1;jettySize=auto;html=1;entryX=0.007;entryY=0.18;entryDx=0;entryDy=0;entryPerimeter=0;" parent="1" source="WCEEy9OTSrLAwlzTOgqZ-17" target="7pfBd49NYhUK_aFZ7S1I-2" edge="1">
          <mxGeometry relative="1" as="geometry" />
        </mxCell>
        <mxCell id="7pfBd49NYhUK_aFZ7S1I-16" value="&#xa;&lt;span style=&quot;color: rgb(0, 0, 0); font-family: Helvetica; font-size: 12px; font-style: normal; font-variant-ligatures: normal; font-variant-caps: normal; font-weight: 400; letter-spacing: normal; orphans: 2; text-align: center; text-indent: 0px; text-transform: none; widows: 2; word-spacing: 0px; -webkit-text-stroke-width: 0px; white-space: nowrap; background-color: rgb(251, 251, 251); text-decoration-thickness: initial; text-decoration-style: initial; text-decoration-color: initial; display: inline !important; float: none;&quot;&gt;CustomUser&lt;/span&gt;&#xa;&#xa;" style="text;html=1;align=center;verticalAlign=middle;whiteSpace=wrap;rounded=0;" parent="1" vertex="1">
          <mxGeometry x="330" y="540" width="60" height="30" as="geometry" />
        </mxCell>
        <mxCell id="XU9lX5efspehuS8-98To-3" style="edgeStyle=orthogonalEdgeStyle;rounded=0;orthogonalLoop=1;jettySize=auto;html=1;exitX=1;exitY=0.5;exitDx=0;exitDy=0;" edge="1" parent="1" source="WCEEy9OTSrLAwlzTOgqZ-71" target="7pfBd49NYhUK_aFZ7S1I-6">
          <mxGeometry relative="1" as="geometry" />
        </mxCell>
        <mxCell id="XU9lX5efspehuS8-98To-4" value="&lt;font style=&quot;font-size: 10px;&quot;&gt;group&#39;s autor&amp;nbsp;&lt;/font&gt;" style="text;html=1;align=center;verticalAlign=middle;whiteSpace=wrap;rounded=0;" vertex="1" parent="1">
          <mxGeometry x="-200" y="530" width="100" height="30" as="geometry" />
        </mxCell>
        <mxCell id="XU9lX5efspehuS8-98To-5" value="&lt;font style=&quot;font-size: 10px;&quot;&gt;message&#39;s autor&amp;nbsp;&lt;/font&gt;" style="text;html=1;align=center;verticalAlign=middle;whiteSpace=wrap;rounded=0;" vertex="1" parent="1">
          <mxGeometry x="120" y="250" width="100" height="30" as="geometry" />
        </mxCell>
      </root>
    </mxGraphModel>
  </diagram>
</mxfile>
